<?xml version="1.0" encoding="UTF-8" ?>
<!DOCTYPE svg PUBLIC "-//W3C//DTD SVG 1.1//EN" "http://www.w3.org/Graphics/SVG/1.1/DTD/svg11.dtd">
<svg width="1024pt" height="818pt" viewBox="0 0 1024 818" version="1.1" xmlns="http://www.w3.org/2000/svg">
<g id="#ffffffff">
</g>
<g id="#211c1aff">
<path fill="#211c1a" opacity="1.00" d=" M 511.50 6.43 C 511.58 6.85 511.75 7.69 511.84 8.11 C 520.56 147.57 528.73 287.11 537.52 426.59 C 560.00 341.26 582.35 255.90 604.75 170.56 C 607.46 160.63 609.83 150.61 612.70 140.73 C 604.13 239.56 595.41 338.38 586.80 437.20 C 586.49 440.25 586.28 443.31 586.11 446.38 C 623.48 397.65 660.69 348.78 697.99 300.00 C 700.91 296.41 703.40 292.48 706.59 289.13 C 681.34 349.88 655.96 410.59 630.69 471.34 C 662.56 447.04 694.20 422.44 725.97 398.02 C 746.50 382.35 766.75 366.28 787.46 350.86 C 747.32 403.01 707.04 455.05 666.97 507.25 C 704.59 492.02 741.94 476.08 779.46 460.56 C 802.94 450.77 826.43 441.00 849.91 431.20 C 804.09 466.30 758.16 501.26 712.32 536.32 C 705.82 541.47 698.91 546.13 692.70 551.61 C 757.86 543.06 822.96 534.03 888.13 525.61 C 827.63 550.84 766.87 575.47 706.34 600.62 C 779.82 606.67 853.31 612.72 926.79 618.78 C 957.61 621.40 988.47 623.63 1019.26 626.56 C 928.79 633.96 838.31 641.43 747.84 648.87 C 731.12 650.39 714.30 651.30 697.65 653.28 C 693.54 683.09 681.54 711.69 663.85 735.99 C 644.69 762.25 618.59 783.40 588.87 796.59 C 554.32 812.03 515.04 816.57 477.88 809.44 C 440.68 802.46 405.76 783.80 379.36 756.66 C 351.80 728.80 333.51 691.99 327.85 653.22 C 219.86 644.27 111.86 635.35 3.86 626.57 C 42.86 622.98 81.95 620.08 120.98 616.76 C 186.08 611.37 251.19 606.14 316.28 600.61 C 315.83 600.33 314.94 599.77 314.49 599.49 C 254.62 574.84 194.72 550.23 134.87 525.53 C 200.32 534.06 265.72 543.02 331.15 551.71 C 285.43 516.63 239.59 481.73 193.80 446.74 C 187.51 441.66 180.65 437.23 174.72 431.74 C 235.40 456.94 296.03 482.28 356.69 507.55 C 333.22 476.95 309.62 446.46 286.09 415.91 C 269.45 394.14 252.45 372.61 236.00 350.70 C 287.49 390.31 338.90 430.01 390.37 469.64 C 391.09 470.13 391.88 470.56 392.66 470.98 C 367.69 411.60 343.11 352.04 318.21 292.63 C 317.70 291.47 317.44 290.24 317.20 289.01 C 357.04 341.76 397.46 394.07 437.44 446.71 C 428.54 344.79 419.54 242.87 410.74 140.94 C 436.11 236.18 460.65 331.64 486.04 426.88 C 494.33 286.72 503.23 146.59 511.50 6.43 M 510.82 56.29 C 510.70 56.46 510.45 56.79 510.32 56.96 C 511.04 61.98 510.19 67.04 509.97 72.07 C 503.91 172.23 497.72 272.39 491.70 372.55 C 492.45 373.47 492.77 374.53 492.66 375.71 C 492.33 374.91 492.03 374.11 491.74 373.31 C 489.85 396.16 489.27 419.12 487.17 441.95 C 483.43 425.85 478.88 409.95 474.78 393.94 C 456.32 323.36 437.66 252.84 419.30 182.25 L 419.23 182.51 C 418.11 177.91 417.13 173.23 415.45 168.79 C 416.25 175.41 416.43 182.09 417.41 188.69 C 420.47 228.00 424.26 267.28 427.56 306.58 C 431.90 355.94 436.23 405.31 440.50 454.68 C 403.75 406.40 366.84 358.25 330.05 310.00 C 328.97 308.48 327.75 307.06 326.40 305.79 C 343.19 346.56 360.31 387.20 377.21 427.92 C 384.14 444.83 391.53 461.57 398.14 478.60 C 352.06 443.18 306.02 407.70 260.04 372.15 C 256.45 369.28 252.88 366.36 249.04 363.83 C 252.02 368.14 255.19 372.35 258.64 376.31 C 267.40 387.84 276.31 399.25 285.14 410.72 C 285.18 410.77 285.24 410.86 285.28 410.90 C 311.45 445.00 337.84 478.93 363.93 513.08 C 315.39 493.05 266.98 472.64 218.46 452.57 C 209.35 448.73 200.27 444.80 191.04 441.26 C 196.71 446.36 203.10 450.59 209.02 455.39 L 209.19 455.32 C 252.33 488.76 296.09 521.45 339.16 554.97 C 333.05 554.57 327.02 553.51 320.95 552.74 C 278.70 547.17 236.47 541.32 194.21 535.88 C 180.48 533.57 166.62 531.95 152.80 530.21 C 155.59 531.81 158.61 532.96 161.63 534.07 C 180.45 541.60 199.13 549.49 217.91 557.15 C 254.25 572.21 290.72 586.96 326.99 602.17 C 303.58 604.32 280.06 605.75 256.71 608.23 C 239.61 609.09 222.56 610.91 205.48 612.19 C 153.09 616.53 100.68 620.75 48.29 625.17 C 43.34 625.29 38.35 625.63 33.49 626.64 C 35.56 626.92 37.67 627.30 39.76 627.00 C 53.48 628.11 67.20 629.69 80.95 630.21 C 96.51 632.07 112.31 632.87 127.96 634.33 C 151.25 636.10 174.51 638.42 197.82 639.90 C 214.69 641.75 231.66 642.76 248.57 644.26 C 274.03 646.30 299.47 648.62 324.95 650.43 C 326.64 650.60 328.34 650.74 330.04 650.82 C 336.57 702.92 367.32 751.09 411.14 779.84 C 440.81 799.37 476.28 810.65 511.91 809.98 C 558.43 811.18 604.75 792.52 638.59 760.80 C 638.63 760.76 638.71 760.69 638.75 760.65 C 641.49 758.19 644.11 755.60 646.60 752.89 C 646.64 752.84 646.73 752.75 646.77 752.70 C 670.97 727.26 687.87 694.72 694.09 660.14 C 694.84 657.05 695.26 653.90 695.74 650.77 C 766.54 644.87 837.36 639.32 908.13 633.17 L 908.98 633.30 L 909.65 632.93 C 913.45 632.90 917.24 632.55 921.04 632.25 C 944.07 630.27 967.13 628.58 990.15 626.45 C 952.08 623.12 913.97 620.14 875.89 616.96 C 815.96 612.03 756.04 607.14 696.12 602.15 C 749.89 580.07 803.62 557.90 857.39 535.81 C 861.70 533.99 866.11 532.38 870.33 530.35 C 836.82 534.79 803.27 539.03 769.83 543.90 C 741.20 547.16 712.70 551.89 684.04 554.92 C 728.84 520.57 773.85 486.48 818.58 452.04 C 823.55 448.60 828.45 444.98 833.00 440.99 C 827.68 442.74 822.56 445.06 817.45 447.32 L 817.97 447.38 C 805.82 451.79 794.01 457.28 781.99 462.09 C 741.24 479.06 700.54 496.13 659.74 512.97 C 667.20 502.44 675.46 492.49 683.21 482.16 C 695.23 466.58 707.24 450.98 719.26 435.40 C 719.43 434.99 719.76 434.16 719.93 433.74 L 720.83 433.82 L 721.52 433.00 L 721.27 432.15 C 722.42 431.78 722.92 430.51 723.70 429.69 C 740.19 407.90 757.36 386.60 773.53 364.58 C 756.00 377.63 738.89 391.22 721.51 404.47 C 689.42 429.26 657.25 453.95 625.17 478.75 C 646.81 425.77 669.23 373.08 691.03 320.17 C 693.37 315.30 695.42 310.28 697.30 305.21 C 693.92 308.55 691.36 312.59 688.48 316.35 C 653.42 362.36 618.28 408.32 583.12 454.26 C 584.87 428.49 587.59 402.79 589.64 377.04 C 594.25 324.76 598.80 272.48 603.38 220.21 C 604.66 203.01 606.81 185.86 607.57 168.63 C 606.21 175.07 604.30 181.37 602.73 187.75 C 580.43 272.44 558.34 357.19 535.97 441.85 C 531.31 365.91 526.70 289.96 522.07 214.01 C 521.22 202.89 521.07 191.67 519.77 180.61 C 519.72 169.71 518.50 158.84 518.09 147.94 C 516.16 117.96 514.46 87.96 512.54 57.98 C 512.24 53.90 512.35 49.78 511.55 45.75 C 511.50 49.28 511.15 52.78 510.82 56.29 Z" />
</g>
<g id="#f7de24ff">
<path fill="#f7de24" opacity="1.00" d=" M 510.82 56.29 C 511.15 52.78 511.50 49.28 511.55 45.75 C 512.35 49.78 512.24 53.90 512.54 57.98 C 514.46 87.96 516.16 117.96 518.09 147.94 C 518.50 158.84 519.72 169.71 519.77 180.61 C 517.50 172.70 517.87 164.35 517.46 156.21 C 516.47 149.51 516.99 142.72 515.99 136.02 C 515.70 127.98 514.12 120.03 514.69 111.96 C 513.04 93.44 512.69 74.81 510.82 56.29 Z" />
<path fill="#f7de24" opacity="1.00" d=" M 415.45 168.79 C 417.13 173.23 418.11 177.91 419.23 182.51 C 418.75 184.61 418.02 186.63 417.41 188.69 C 416.43 182.09 416.25 175.41 415.45 168.79 Z" />
<path fill="#f7de24" opacity="1.00" d=" M 769.83 543.90 C 803.27 539.03 836.82 534.79 870.33 530.35 C 866.11 532.38 861.70 533.99 857.39 535.81 C 857.00 535.36 856.24 534.46 855.86 534.02 C 849.13 533.92 842.69 536.28 835.97 536.28 C 820.94 538.05 805.99 540.57 790.96 542.32 C 783.90 542.78 776.93 545.31 769.83 543.90 Z" />
<path fill="#f7de24" opacity="1.00" d=" M 205.48 612.19 C 222.56 610.91 239.61 609.09 256.71 608.23 C 249.35 610.31 241.68 611.46 234.03 611.41 C 217.90 612.51 201.83 614.41 185.70 615.46 C 180.09 615.10 174.58 616.54 168.98 616.34 C 165.72 615.97 162.82 618.23 159.56 617.59 C 154.88 616.74 150.31 618.39 145.66 618.55 C 137.70 618.57 129.92 620.64 121.96 620.49 C 99.95 622.89 77.78 623.42 55.82 626.04 C 60.68 627.78 65.90 627.90 70.99 628.46 C 74.33 628.87 78.11 627.88 80.95 630.21 C 67.20 629.69 53.48 628.11 39.76 627.00 C 42.60 626.38 45.42 625.66 48.29 625.17 C 100.68 620.75 153.09 616.53 205.48 612.19 Z" />
<path fill="#f7de24" opacity="1.00" d=" M 873.48 618.01 C 874.08 617.75 875.29 617.23 875.89 616.96 C 913.97 620.14 952.08 623.12 990.15 626.45 C 967.13 628.58 944.07 630.27 921.04 632.25 C 917.24 632.55 913.45 632.90 909.65 632.93 C 912.22 631.26 915.42 631.64 918.33 631.12 C 926.44 629.72 934.73 630.02 942.88 628.89 C 955.28 628.21 967.62 626.60 980.04 626.54 C 971.60 626.38 963.18 625.78 954.82 624.67 C 944.55 624.07 934.30 623.18 924.05 622.38 C 917.66 622.44 911.41 621.00 905.07 620.47 C 894.50 620.29 884.03 618.60 873.48 618.01 Z" />
<path fill="#f7de24" opacity="1.00" d=" M 883.92 633.81 C 891.99 633.66 900.08 631.43 908.13 633.17 C 837.36 639.32 766.54 644.87 695.74 650.77 C 695.26 653.90 694.84 657.05 694.09 660.14 C 693.46 656.39 692.97 651.85 696.15 649.05 C 702.06 648.12 708.12 649.18 714.03 647.99 C 724.38 647.61 734.59 645.71 744.95 645.47 C 752.63 644.69 760.27 643.30 768.03 643.53 C 781.18 642.08 794.38 641.36 807.57 640.25 C 812.87 639.38 818.35 640.09 823.54 638.49 C 833.06 636.83 842.85 638.14 852.35 636.10 C 862.88 635.51 873.42 634.94 883.92 633.81 Z" />
<path fill="#f7de24" opacity="1.00" d=" M 197.82 639.90 C 214.93 638.71 231.90 642.41 248.97 642.55 C 252.59 643.51 256.30 643.77 260.03 643.81 C 266.66 644.55 273.33 644.78 279.95 645.58 C 287.35 645.52 294.68 646.54 302.00 647.37 C 306.51 646.86 310.94 647.76 315.39 648.40 C 318.59 648.97 322.50 647.71 324.95 650.43 C 299.47 648.62 274.03 646.30 248.57 644.26 C 231.66 642.76 214.69 641.75 197.82 639.90 Z" />
</g>
<g id="#ffe011ff">
<path fill="#ffe011" opacity="1.00" d=" M 510.32 56.96 C 510.45 56.79 510.70 56.46 510.82 56.29 C 512.69 74.81 513.04 93.44 514.69 111.96 C 514.12 120.03 515.70 127.98 515.99 136.02 C 516.99 142.72 516.47 149.51 517.46 156.21 C 517.87 164.35 517.50 172.70 519.77 180.61 C 521.07 191.67 521.22 202.89 522.07 214.01 C 526.70 289.96 531.31 365.91 535.97 441.85 C 558.34 357.19 580.43 272.44 602.73 187.75 C 604.30 181.37 606.21 175.07 607.57 168.63 C 606.81 185.86 604.66 203.01 603.38 220.21 C 598.80 272.48 594.25 324.76 589.64 377.04 C 587.59 402.79 584.87 428.49 583.12 454.26 C 618.28 408.32 653.42 362.36 688.48 316.35 C 689.49 316.25 690.52 316.15 691.55 316.06 C 691.38 317.43 691.21 318.80 691.03 320.17 C 669.23 373.08 646.81 425.77 625.17 478.75 C 657.25 453.95 689.42 429.26 721.51 404.47 C 738.89 391.22 756.00 377.63 773.53 364.58 C 757.36 386.60 740.19 407.90 723.70 429.69 C 722.92 430.51 722.42 431.78 721.27 432.15 C 720.93 432.54 720.26 433.34 719.93 433.74 C 719.76 434.16 719.43 434.99 719.26 435.40 C 707.24 450.98 695.23 466.58 683.21 482.16 C 675.46 492.49 667.20 502.44 659.74 512.97 C 700.54 496.13 741.24 479.06 781.99 462.09 C 794.01 457.28 805.82 451.79 817.97 447.38 C 818.81 447.47 820.50 447.67 821.34 447.76 C 820.43 449.20 819.54 450.64 818.58 452.04 C 773.85 486.48 728.84 520.57 684.04 554.92 C 712.70 551.89 741.20 547.16 769.83 543.90 C 776.93 545.31 783.90 542.78 790.96 542.32 C 805.99 540.57 820.94 538.05 835.97 536.28 C 842.69 536.28 849.13 533.92 855.86 534.02 C 856.24 534.46 857.00 535.36 857.39 535.81 C 803.62 557.90 749.89 580.07 696.12 602.15 C 756.04 607.14 815.96 612.03 875.89 616.96 C 875.29 617.23 874.08 617.75 873.48 618.01 C 884.03 618.60 894.50 620.29 905.07 620.47 C 911.41 621.00 917.66 622.44 924.05 622.38 C 934.30 623.18 944.55 624.07 954.82 624.67 C 963.18 625.78 971.60 626.38 980.04 626.54 C 967.62 626.60 955.28 628.21 942.88 628.89 C 934.73 630.02 926.44 629.72 918.33 631.12 C 915.42 631.64 912.22 631.26 909.65 632.93 L 908.98 633.30 L 908.13 633.17 C 900.08 631.43 891.99 633.66 883.92 633.81 C 873.42 634.94 862.88 635.51 852.35 636.10 C 842.85 638.14 833.06 636.83 823.54 638.49 C 818.35 640.09 812.87 639.38 807.57 640.25 C 794.38 641.36 781.18 642.08 768.03 643.53 C 760.27 643.30 752.63 644.69 744.95 645.47 C 734.59 645.71 724.38 647.61 714.03 647.99 C 708.12 649.18 702.06 648.12 696.15 649.05 C 692.97 651.85 693.46 656.39 694.09 660.14 C 687.87 694.72 670.97 727.26 646.77 752.70 C 646.73 752.75 646.64 752.84 646.60 752.89 C 644.11 755.60 641.49 758.19 638.75 760.65 C 638.71 760.69 638.63 760.76 638.59 760.80 C 604.75 792.52 558.43 811.18 511.91 809.98 C 476.28 810.65 440.81 799.37 411.14 779.84 C 367.32 751.09 336.57 702.92 330.04 650.82 C 328.34 650.74 326.64 650.60 324.95 650.43 C 322.50 647.71 318.59 648.97 315.39 648.40 C 310.94 647.76 306.51 646.86 302.00 647.37 C 294.68 646.54 287.35 645.52 279.95 645.58 C 273.33 644.78 266.66 644.55 260.03 643.81 C 256.30 643.77 252.59 643.51 248.97 642.55 C 231.90 642.41 214.93 638.71 197.82 639.90 C 174.51 638.42 151.25 636.10 127.96 634.33 C 112.31 632.87 96.51 632.07 80.95 630.21 C 78.11 627.88 74.33 628.87 70.99 628.46 C 65.90 627.90 60.68 627.78 55.82 626.04 C 77.78 623.42 99.95 622.89 121.96 620.49 C 129.92 620.64 137.70 618.57 145.66 618.55 C 150.31 618.39 154.88 616.74 159.56 617.59 C 162.82 618.23 165.72 615.97 168.98 616.34 C 174.58 616.54 180.09 615.10 185.70 615.46 C 201.83 614.41 217.90 612.51 234.03 611.41 C 241.68 611.46 249.35 610.31 256.71 608.23 C 280.06 605.75 303.58 604.32 326.99 602.17 C 290.72 586.96 254.25 572.21 217.91 557.15 C 199.13 549.49 180.45 541.60 161.63 534.07 C 162.20 533.68 163.35 532.90 163.92 532.51 C 174.01 533.62 184.01 535.97 194.21 535.88 C 236.47 541.32 278.70 547.17 320.95 552.74 C 327.02 553.51 333.05 554.57 339.16 554.97 C 296.09 521.45 252.33 488.76 209.19 455.32 C 212.15 454.03 215.24 453.01 218.46 452.57 C 266.98 472.64 315.39 493.05 363.93 513.08 C 337.84 478.93 311.45 445.00 285.28 410.90 C 285.24 410.86 285.18 410.77 285.14 410.72 C 276.31 399.25 267.40 387.84 258.64 376.31 C 258.45 375.17 258.28 374.04 258.13 372.92 C 258.61 372.73 259.57 372.34 260.04 372.15 C 306.02 407.70 352.06 443.18 398.14 478.60 C 391.53 461.57 384.14 444.83 377.21 427.92 C 360.31 387.20 343.19 346.56 326.40 305.79 C 327.75 307.06 328.97 308.48 330.05 310.00 C 366.84 358.25 403.75 406.40 440.50 454.68 C 436.23 405.31 431.90 355.94 427.56 306.58 C 424.26 267.28 420.47 228.00 417.41 188.69 C 418.02 186.63 418.75 184.61 419.23 182.51 L 419.30 182.25 C 437.66 252.84 456.32 323.36 474.78 393.94 C 478.88 409.95 483.43 425.85 487.17 441.95 C 489.27 419.12 489.85 396.16 491.74 373.31 C 492.03 374.11 492.33 374.91 492.66 375.71 C 492.77 374.53 492.45 373.47 491.70 372.55 C 497.72 272.39 503.91 172.23 509.97 72.07 C 510.19 67.04 511.04 61.98 510.32 56.96 M 511.23 481.72 C 501.16 492.94 490.91 504.00 480.76 515.14 C 485.31 521.97 488.62 529.83 489.45 538.04 C 485.26 532.03 480.50 526.27 474.27 522.28 C 469.12 527.81 464.10 533.46 458.94 538.99 C 458.23 539.91 457.02 540.66 456.99 541.96 C 473.22 554.99 488.50 571.36 493.69 592.08 C 496.61 602.70 496.14 614.32 491.51 624.39 C 487.35 633.82 480.54 642.64 470.94 646.93 C 459.47 652.09 445.26 649.41 436.00 641.06 C 427.12 633.34 421.86 622.29 419.07 611.04 C 414.33 592.18 417.10 572.25 423.44 554.11 C 428.94 538.25 438.03 523.69 449.69 511.64 C 451.54 512.15 452.18 511.50 451.60 509.67 C 462.08 499.34 474.37 491.05 487.28 484.07 C 471.36 486.45 455.99 492.16 441.91 499.91 C 410.76 517.09 386.41 546.18 375.12 579.92 C 362.25 617.83 365.66 661.35 385.56 696.23 C 390.32 705.68 396.80 714.32 403.76 722.32 C 430.42 752.77 470.46 771.25 511.02 770.92 C 546.86 771.48 582.61 757.56 608.87 733.23 C 609.26 735.47 612.14 732.90 610.45 731.78 C 612.64 729.80 614.69 727.65 616.66 725.44 C 626.18 715.68 633.96 704.25 640.19 692.14 C 658.66 656.33 660.93 612.67 646.53 575.06 C 634.59 543.29 610.98 516.12 581.26 499.76 C 567.13 491.82 551.59 486.78 535.74 483.63 C 539.71 486.32 544.06 488.39 548.08 491.03 C 564.77 501.46 579.51 515.37 589.69 532.31 C 598.70 547.09 604.11 563.92 606.27 581.05 C 607.88 597.90 605.36 615.69 596.40 630.30 C 591.16 638.94 583.00 646.29 572.96 648.59 C 563.05 651.18 552.01 648.56 544.37 641.72 C 534.52 633.09 528.45 620.22 527.87 607.15 C 527.68 594.07 532.23 581.23 539.37 570.39 C 546.87 559.32 556.44 549.80 566.85 541.48 C 560.85 535.16 555.04 528.66 549.15 522.24 C 547.87 523.16 546.57 524.04 545.35 525.05 C 542.17 525.43 540.72 528.91 537.67 529.52 C 537.70 527.59 537.76 525.66 537.84 523.75 C 539.13 520.70 540.87 517.87 542.65 515.09 C 540.19 512.45 537.81 509.75 535.31 507.15 C 537.70 506.30 533.93 504.00 534.75 506.59 C 527.96 498.94 520.96 491.48 514.12 483.88 C 513.34 482.91 512.31 482.26 511.23 481.72 Z" />
</g>
<g id="#d1bd3fff">
<path fill="#d1bd3f" opacity="1.00" d=" M 688.48 316.35 C 691.36 312.59 693.92 308.55 697.30 305.21 C 695.42 310.28 693.37 315.30 691.03 320.17 C 691.21 318.80 691.38 317.43 691.55 316.06 C 690.52 316.15 689.49 316.25 688.48 316.35 Z" />
</g>
<g id="#c9ba3eff">
<path fill="#c9ba3e" opacity="1.00" d=" M 249.04 363.83 C 252.88 366.36 256.45 369.28 260.04 372.15 C 259.57 372.34 258.61 372.73 258.13 372.92 C 258.28 374.04 258.45 375.17 258.64 376.31 C 255.19 372.35 252.02 368.14 249.04 363.83 Z" />
</g>
<g id="#e4d161ff">
<path fill="#e4d161" opacity="1.00" d=" M 285.14 410.72 C 285.18 410.77 285.24 410.86 285.28 410.90 C 285.24 410.86 285.18 410.77 285.14 410.72 Z" />
</g>
<g id="#d2c558ff">
<path fill="#d2c558" opacity="1.00" d=" M 719.93 433.74 C 720.26 433.34 720.93 432.54 721.27 432.15 L 721.52 433.00 L 720.83 433.82 L 719.93 433.74 Z" />
</g>
<g id="#d4c240ff">
<path fill="#d4c240" opacity="1.00" d=" M 817.45 447.32 C 822.56 445.06 827.68 442.74 833.00 440.99 C 828.45 444.98 823.55 448.60 818.58 452.04 C 819.54 450.64 820.43 449.20 821.34 447.76 C 820.50 447.67 818.81 447.47 817.97 447.38 L 817.45 447.32 Z" />
</g>
<g id="#fbe018ff">
<path fill="#fbe018" opacity="1.00" d=" M 191.04 441.26 C 200.27 444.80 209.35 448.73 218.46 452.57 C 215.24 453.01 212.15 454.03 209.19 455.32 L 209.02 455.39 C 203.10 450.59 196.71 446.36 191.04 441.26 Z" />
</g>
<g id="#192122ff">
<path fill="#192122" opacity="1.00" d=" M 511.23 481.72 C 512.31 482.26 513.34 482.91 514.12 483.88 C 520.96 491.48 527.96 498.94 534.75 506.59 L 535.31 507.15 C 537.81 509.75 540.19 512.45 542.65 515.09 C 540.87 517.87 539.13 520.70 537.84 523.75 C 535.82 528.36 534.13 533.21 533.95 538.29 C 537.33 533.54 540.85 528.82 545.35 525.05 C 546.57 524.04 547.87 523.16 549.15 522.24 C 555.04 528.66 560.85 535.16 566.85 541.48 C 556.44 549.80 546.87 559.32 539.37 570.39 C 532.23 581.23 527.68 594.07 527.87 607.15 C 528.45 620.22 534.52 633.09 544.37 641.72 C 552.01 648.56 563.05 651.18 572.96 648.59 C 583.00 646.29 591.16 638.94 596.40 630.30 C 605.36 615.69 607.88 597.90 606.27 581.05 C 604.11 563.92 598.70 547.09 589.69 532.31 C 579.51 515.37 564.77 501.46 548.08 491.03 C 544.06 488.39 539.71 486.32 535.74 483.63 C 551.59 486.78 567.13 491.82 581.26 499.76 C 610.98 516.12 634.59 543.29 646.53 575.06 C 660.93 612.67 658.66 656.33 640.19 692.14 C 633.96 704.25 626.18 715.68 616.66 725.44 C 615.98 725.35 614.64 725.16 613.96 725.07 C 626.38 711.69 636.82 696.30 643.44 679.23 C 657.02 645.29 656.96 606.00 642.81 572.26 C 629.69 539.75 603.85 512.72 572.17 497.81 C 565.24 494.98 558.50 491.36 551.03 490.16 C 562.81 497.61 573.58 506.82 582.34 517.68 C 599.01 537.92 608.10 563.91 609.30 589.99 C 608.85 605.74 605.59 622.09 596.15 635.06 C 589.14 645.04 577.48 652.24 565.02 651.84 C 553.30 652.35 542.51 645.37 535.86 636.11 C 529.09 626.55 524.80 614.86 525.54 603.04 C 526.54 588.13 532.83 573.81 542.38 562.41 C 548.42 554.64 555.47 547.73 563.03 541.47 C 558.97 536.09 554.20 531.24 549.51 526.42 C 549.16 526.37 548.48 526.26 548.13 526.21 C 540.32 531.34 535.63 539.78 531.66 547.99 C 530.21 537.23 533.39 526.56 538.37 517.12 C 539.88 514.73 537.13 512.88 535.87 511.16 C 530.27 505.40 525.15 499.20 519.54 493.45 C 516.82 490.67 514.60 487.40 511.47 485.05 C 502.84 494.89 493.71 504.26 485.04 514.06 C 483.38 515.30 485.00 517.13 485.59 518.51 C 490.34 527.23 493.12 537.34 491.56 547.29 C 487.56 539.97 483.43 532.41 476.80 527.11 C 475.97 526.52 474.52 525.63 473.66 526.62 C 468.73 531.09 464.84 536.57 460.07 541.22 C 474.29 553.10 487.46 567.36 494.06 584.95 C 498.25 596.76 499.44 610.10 495.06 622.03 C 491.40 631.72 485.30 640.72 476.66 646.61 C 465.35 653.89 449.78 653.61 438.66 646.11 C 429.63 640.35 423.62 630.90 419.76 621.10 C 414.57 608.13 413.47 593.89 414.81 580.08 C 417.19 562.52 422.79 545.26 432.23 530.19 C 440.25 516.97 451.14 505.62 463.46 496.34 C 466.40 494.24 469.32 492.10 472.01 489.68 C 455.80 494.89 440.21 502.30 426.66 512.67 C 397.16 534.64 376.68 568.55 371.56 605.03 C 366.72 635.09 372.31 666.58 386.49 693.48 C 386.26 694.17 385.79 695.54 385.56 696.23 C 365.66 661.35 362.25 617.83 375.12 579.92 C 386.41 546.18 410.76 517.09 441.91 499.91 C 455.99 492.16 471.36 486.45 487.28 484.07 C 474.37 491.05 462.08 499.34 451.60 509.67 C 450.79 510.16 450.16 510.81 449.69 511.64 C 438.03 523.69 428.94 538.25 423.44 554.11 C 417.10 572.25 414.33 592.18 419.07 611.04 C 421.86 622.29 427.12 633.34 436.00 641.06 C 445.26 649.41 459.47 652.09 470.94 646.93 C 480.54 642.64 487.35 633.82 491.51 624.39 C 496.14 614.32 496.61 602.70 493.69 592.08 C 488.50 571.36 473.22 554.99 456.99 541.96 C 457.02 540.66 458.23 539.91 458.94 538.99 C 464.10 533.46 469.12 527.81 474.27 522.28 C 480.50 526.27 485.26 532.03 489.45 538.04 C 488.62 529.83 485.31 521.97 480.76 515.14 C 490.91 504.00 501.16 492.94 511.23 481.72 Z" />
</g>
<g id="#0568b3ff">
<path fill="#0568b3" opacity="1.00" d=" M 511.47 485.05 C 514.60 487.40 516.82 490.67 519.54 493.45 C 525.15 499.20 530.27 505.40 535.87 511.16 C 537.13 512.88 539.88 514.73 538.37 517.12 C 533.39 526.56 530.21 537.23 531.66 547.99 C 535.63 539.78 540.32 531.34 548.13 526.21 C 548.48 526.26 549.16 526.37 549.51 526.42 C 554.20 531.24 558.97 536.09 563.03 541.47 C 555.47 547.73 548.42 554.64 542.38 562.41 C 532.83 573.81 526.54 588.13 525.54 603.04 C 524.80 614.86 529.09 626.55 535.86 636.11 C 542.51 645.37 553.30 652.35 565.02 651.84 C 577.48 652.24 589.14 645.04 596.15 635.06 C 605.59 622.09 608.85 605.74 609.30 589.99 C 608.10 563.91 599.01 537.92 582.34 517.68 C 573.58 506.82 562.81 497.61 551.03 490.16 C 558.50 491.36 565.24 494.98 572.17 497.81 C 603.85 512.72 629.69 539.75 642.81 572.26 C 656.96 606.00 657.02 645.29 643.44 679.23 C 636.82 696.30 626.38 711.69 613.96 725.07 C 587.90 752.25 550.75 768.62 513.02 768.60 C 476.52 769.13 439.99 754.76 413.80 729.29 C 402.79 718.97 393.78 706.66 386.49 693.48 C 372.31 666.58 366.72 635.09 371.56 605.03 C 376.68 568.55 397.16 534.64 426.66 512.67 C 440.21 502.30 455.80 494.89 472.01 489.68 C 469.32 492.10 466.40 494.24 463.46 496.34 C 451.14 505.62 440.25 516.97 432.23 530.19 C 422.79 545.26 417.19 562.52 414.81 580.08 C 413.47 593.89 414.57 608.13 419.76 621.10 C 423.62 630.90 429.63 640.35 438.66 646.11 C 449.78 653.61 465.35 653.89 476.66 646.61 C 485.30 640.72 491.40 631.72 495.06 622.03 C 499.44 610.10 498.25 596.76 494.06 584.95 C 487.46 567.36 474.29 553.10 460.07 541.22 C 464.84 536.57 468.73 531.09 473.66 526.62 C 474.52 525.63 475.97 526.52 476.80 527.11 C 483.43 532.41 487.56 539.97 491.56 547.29 C 493.12 537.34 490.34 527.23 485.59 518.51 C 485.00 517.13 483.38 515.30 485.04 514.06 C 493.71 504.26 502.84 494.89 511.47 485.05 Z" />
</g>
<g id="#f2da4aff">
<path fill="#f2da4a" opacity="1.00" d=" M 534.75 506.59 C 533.93 504.00 537.70 506.30 535.31 507.15 L 534.75 506.59 Z" />
</g>
<g id="#ebd44cff">
<path fill="#ebd44c" opacity="1.00" d=" M 449.69 511.64 C 450.16 510.81 450.79 510.16 451.60 509.67 C 452.18 511.50 451.54 512.15 449.69 511.64 Z" />
</g>
<g id="#d6c239ff">
<path fill="#d6c239" opacity="1.00" d=" M 533.95 538.29 C 534.13 533.21 535.82 528.36 537.84 523.75 C 537.76 525.66 537.70 527.59 537.67 529.52 C 540.72 528.91 542.17 525.43 545.35 525.05 C 540.85 528.82 537.33 533.54 533.95 538.29 Z" />
</g>
<g id="#c3b03fff">
<path fill="#c3b03f" opacity="1.00" d=" M 152.80 530.21 C 166.62 531.95 180.48 533.57 194.21 535.88 C 184.01 535.97 174.01 533.62 163.92 532.51 C 163.35 532.90 162.20 533.68 161.63 534.07 C 158.61 532.96 155.59 531.81 152.80 530.21 Z" />
</g>
<g id="#aa9f4cff">
<path fill="#aa9f4c" opacity="1.00" d=" M 33.49 626.64 C 38.35 625.63 43.34 625.29 48.29 625.17 C 45.42 625.66 42.60 626.38 39.76 627.00 C 37.67 627.30 35.56 626.92 33.49 626.64 Z" />
</g>
<g id="#152321ff">
<path fill="#152321" opacity="1.00" d=" M 386.49 693.48 C 393.78 706.66 402.79 718.97 413.80 729.29 C 439.99 754.76 476.52 769.13 513.02 768.60 C 550.75 768.62 587.90 752.25 613.96 725.07 C 614.64 725.16 615.98 725.35 616.66 725.44 C 614.69 727.65 612.64 729.80 610.45 731.78 C 610.05 732.14 609.26 732.87 608.87 733.23 C 582.61 757.56 546.86 771.48 511.02 770.92 C 470.46 771.25 430.42 752.77 403.76 722.32 C 396.80 714.32 390.32 705.68 385.56 696.23 C 385.79 695.54 386.26 694.17 386.49 693.48 Z" />
</g>
<g id="#f1d54bff">
<path fill="#f1d54b" opacity="1.00" d=" M 608.87 733.23 C 609.26 732.87 610.05 732.14 610.45 731.78 C 612.14 732.90 609.26 735.47 608.87 733.23 Z" />
</g>
<g id="#d3cb65ff">
<path fill="#d3cb65" opacity="1.00" d=" M 646.60 752.89 C 646.64 752.84 646.73 752.75 646.77 752.70 C 646.73 752.75 646.64 752.84 646.60 752.89 Z" />
</g>
<g id="#cab758ff">
<path fill="#cab758" opacity="1.00" d=" M 638.59 760.80 C 638.63 760.76 638.71 760.69 638.75 760.65 C 638.71 760.69 638.63 760.76 638.59 760.80 Z" />
</g>
</svg>
