<?xml version="1.0" encoding="UTF-8"?>
<!DOCTYPE svg PUBLIC "-//W3C//DTD SVG 1.0//EN"
	"http://www.w3.org/TR/2001/REC-SVG-20010904/DTD/svg10.dtd">
<svg xmlns="http://www.w3.org/2000/svg" version="1.0" width="300.00055" height="97.110001" id="s1">
<g transform="translate(-242.93464,-460.02024)" id="l1">
<g transform="matrix(0.8670536,0,0,0.8670536,1759.7902,969.1735)" id="g1">
<path d="M217.8125,-805.71875C186.9005,-805.71875 161.8125,-780.63075 161.8125,-749.71875C161.8125,-718.80675 186.9005,-693.71875 217.8125,-693.71875C248.7245,-693.71875 273.8125,-718.80675 273.8125,-749.71875C273.8125,-780.63075 248.7245,-805.71875 217.8125,-805.71875zM164.875,-796.75L90.40625,-786.9375L117.59375,-768.65625L44.8125,-749.71875L117.59375,-730.78125L90.40625,-712.5L164.875,-702.6875C155.4599,-715.557 149.8125,-731.90699 149.8125,-749.71875C149.8125,-767.53052 155.4599,-783.8805 164.875,-796.75zM270.75,-796.75C280.1651,-783.8805 285.8125,-767.53051 285.8125,-749.71875C285.8125,-731.90699 280.1651,-715.557 270.75,-702.6875L345.21875,-712.5L318.03125,-730.78125L390.8125,-749.71875L318.03125,-768.65625L345.21875,-786.9375L270.75,-796.75z" transform="translate(-1794.2494,218.49639)" style="opacity:1;fill:#cc2d41;fill-opacity:1;stroke:none;stroke-width:9;stroke-miterlimit:4;stroke-dasharray:none;stroke-dashoffset:1.8;stroke-opacity:1" id="r1"/>
</g>
</g>
</svg>
