<?xml version="1.0" encoding="utf-8" standalone="no"?>
<!-- Created with Inkscape (http://www.inkscape.org/) -->
<svg xmlns="http://www.w3.org/2000/svg" version="1.1"
width="1033.2188" height="1033.2188" id="svg2">
  <g transform="translate(143.03125,-14.330933)" id="layer1">
    <path d="m 427.6875,213.46875 0,170 -340.59375,0 100.4375,128.96875 239,0 0,409.84375 134.59375,0 0,-407.71875 173.46875,0 0,-130.59375 -173.28125,0 0,-39.9375 303.34375,0 0,-130.5625 -436.96875,0 z m 10.125,12.5 411.96875,0 0,105.5625 -303.375,0 0,64.4375 173.28125,0 0,106.09375 -173.4375,0 0,407.71875 -109.84375,0 0,-409.84375 -243.25,0 -83.21875,-103.96875 327.875,0 0,-170 z"
    transform="translate(-149,8.3621826)" id="rect3838-0-9-4"
    style="fill:#000000;fill-opacity:1;stroke:none" />
    <path d="m 522.5625,5.96875 c -285.31383,0 -516.59375,231.27992 -516.59375,516.59375 0,285.31383 231.27992,516.625 516.59375,516.625 285.31383,0 516.625,-231.31117 516.625,-516.625 0,-285.31383 -231.31117,-516.59375 -516.625,-516.59375 z m 0.0312,27.5625 c 270.08925,0 489.0313,218.97325 489.0313,489.0625 0,270.08925 -218.94205,489.03125 -489.0313,489.03125 -270.08925,0 -489.0625,-218.942 -489.0625,-489.03125 0,-270.08925 218.97325,-489.0625 489.0625,-489.0625 z m 0,16.4375 c -261.00956,0 -472.625,211.58419 -472.625,472.59375 0,261.00956 211.61544,472.625 472.625,472.625 261.00956,0 472.59375,-211.61544 472.59375,-472.625 0,-261.00956 -211.58419,-472.59375 -472.59375,-472.59375 z m -0.0312,27.71875 c 245.69904,0 444.875,199.17596 444.875,444.875 0,245.69904 -199.17596,444.875 -444.875,444.875 -245.69904,0 -444.875,-199.17596 -444.875,-444.875 0,-245.69904 199.17596,-444.875 444.875,-444.875 z"
    transform="translate(-149,8.3621826)" id="path2996"
    style="fill:#000000;fill-opacity:1;stroke:none" />
    <path d="m 326.68334,268.41477 32.6233,37.60762 -46.15171,-19.69446 -25.68582,42.648 4.46888,-49.97882 -48.49801,-11.2497 48.91364,-11.19415 -4.2876,-49.6007 25.76141,43.06045 45.84812,-19.4052 z"
    transform="translate(-105.86649,35.939347)" id="path3795"
    style="fill:#000000;fill-opacity:1;stroke:none" />
    <path d="m 184.8921,225.34742 70.63323,-15.82766 -5.46945,-68.30743 36.87987,62.28517 63.27407,-26.3099 -47.84021,54.32201 44.57497,52.04701 -66.44674,-28.71232 -35.72523,58.47673 6.77387,-72.06721 z"
    transform="matrix(0.14686763,0.39862553,-0.39862553,0.14686763,185.29426,100.60343)"
    id="path3799"
    style="fill:#000000;fill-opacity:1;stroke:none" />
    <path d="m 794.25,355.5 24.97445,40.74475 43.48825,-18.97557 -31.03303,36.34293 31.48545,35.49601 -44.15391,-18.28359 -24.02918,40.91332 3.74442,-47.6428 -46.33631,-10.2102 46.46809,-11.16129 z"
    transform="translate(-149.25,9.3621826)" id="path3801"
    style="fill:#000000;fill-opacity:1;stroke:none" />
    <path d="m 571,561.5 28.59204,-7.78371 -3.76127,-29.39291 16.23817,24.78734 26.79203,-12.66008 -18.5563,23.10312 20.31965,21.56856 -27.70659,-10.50883 -14.23379,25.99018 1.43268,-29.59794 z"
    transform="matrix(0.99930637,0.03723945,-0.03723945,0.99930637,-127.69399,-12.428212)"
    id="path3803"
    style="fill:#000000;fill-opacity:1;stroke:none" />
    <path d="m 309.35923,576.71335 49.36555,-8.49318 -4.04666,-51.05449 23.33229,44.32489 47.30521,-19.62531 -34.9454,35.88747 33.28289,38.92538 -44.92973,-22.14521 -26.73526,43.68251 7.1773,-49.57396 z"
    transform="matrix(0.99996064,0.00887246,-0.00887246,0.99996064,-143.50702,4.0488873)"
    id="path3812"
    style="fill:#000000;fill-opacity:1;stroke:none" />
    <path d="m 441.875,230.03125 0,170 -323.09375,0 76.5,95.84375 245.1875,0 0,409.84375 101.6875,0 0,-407.71875 173.46875,0 0,-97.96875 -173.46875,0 0,-72.5625 303.5625,0 0,-97.4375 -403.84375,0 z m 22.625,23.34375 357.875,0 0,50.75 -302.125,0 0,117.125 172.75,0 0,49.875 -172.75,0 0,411.25 -55.75,0 0,-411.25 -257.90625,0 -41.84375,-49.875 299.75,0 0,-167.875 z"
    transform="translate(-149,8.3621826)" id="rect3838-0"
    style="fill:#000000;fill-opacity:1;stroke:none" />
  </g>
</svg>
